# xmcd
#
# Track frame offsets:
#	150
#	4569
#	14578
#	15519
#	28909
#	30062
#	46987
#	47787
#	58543
#	71168
#	94789
#	112833
#	113927
#	126681
#	127766
#	142382
#	144379
#	157957
#	170701
#	188376
#	202984
#	204133
#	222400
#
# Disc length: 3168 seconds
#
# Revision: 0
# Processed by: cddbd v1.5.2PL0 Copyright (c) Steve Scherf et al.
# Submitted via: audiograbber 1.83.01
#
DISCID=3d0c5e17
DTITLE=Various Artist - The Amazing Zigzag Concert [CD2]
DYEAR=2010
DGENRE=Country Rock
TTITLE0=M.C. - Introduction
TTITLE1=Chilli Willi and The Red Hot Peppers - I'll Be Home
TTITLE2=Chilli Willi and The Red Hot Peppers - Introduction: The Streets Of Balti
TTITLE2=more
TTITLE3=Chilli Willi and The Red Hot Peppers - The Streets Of Baltimore
TTITLE4=Chilli Willi and The Red Hot Peppers - Introduction: Mama and Papa Had Love
TTITLE5=Chilli Willi and The Red Hot Peppers - Mama and Papa Had Love
TTITLE6=Chilli Willi and The Red Hot Peppers - Introduction: Midnight Bus
TTITLE7=Chilli Willi and The Red Hot Peppers - Midnight Bus
TTITLE8=Chilli Willi and The Red Hot Peppers - Older Guys
TTITLE9=Chilli Willi and The Red Hot Peppers - Desert Island Woman
TTITLE10=Chilli Willi and The Red Hot Peppers - Friday Song
TTITLE11=Chilli Willi and The Red Hot Peppers - Introduction: Goodbye Nashville, 
TTITLE11=Hello Camden Town
TTITLE12=Chilli Willi and The Red Hot Peppers - Goodbye Nashville, Hello Camden T
TTITLE12=own
TTITLE13=Chilli Willi and The Red Hot Peppers - Introduction: Walkin' Blues
TTITLE14=Chilli Willi and The Red Hot Peppers - Walkin' Blues
TTITLE15=Chilli Willi and The Red Hot Peppers - Introduction: Just Like The Devil
TTITLE16=Chilli Willi and The Red Hot Peppers - Just Like The Devil
TTITLE17=Chilli Willi and The Red Hot Peppers - Boppin' The Blues
TTITLE18=Chilli Willi and The Red Hot Peppers - Choo Choo Ch'Boogie
TTITLE19=Chilli Willi and The Red Hot Peppers - Fire On The Mountain
TTITLE20=Chilli Willi and The Red Hot Peppers - Introduction: Drunken Sunken Redn
TTITLE20=eck Blues
TTITLE21=Chilli Willi and The Red Hot Peppers - Drunken Sunken Redneck Blues
TTITLE22=Chilli Willi and The Red Hot Peppers - Six Days On The Road
EXTD=
EXTT0=
EXTT1=
EXTT2=
EXTT3=
EXTT4=
EXTT5=
EXTT6=
EXTT7=
EXTT8=
EXTT9=
EXTT10=
EXTT11=
EXTT12=
EXTT13=
EXTT14=
EXTT15=
EXTT16=
EXTT17=
EXTT18=
EXTT19=
EXTT20=
EXTT21=
EXTT22=
PLAYORDER=
